<svg version="1.1" id="Layer_1" xmlns="http://www.w3.org/2000/svg" xmlns:xlink="http://www.w3.org/1999/xlink" x="0px" y="0px"
	 width="100%" viewBox="0 0 394 394" enable-background="new 0 0 394 394" xml:space="preserve">
<path fill="#747474" opacity="1.000000" stroke="none" 
	d="
M1.000003,289.000000 
	C1.000000,229.645767 1.000000,170.291550 1.375656,110.332825 
	C1.888924,109.255592 2.085507,108.791428 2.155731,108.308868 
	C6.850078,76.050713 21.757797,49.570847 47.235889,29.203825 
	C69.255142,11.601777 94.678169,3.266818 122.664604,3.117771 
	C169.804932,2.866715 216.947632,3.007305 264.089111,3.091575 
	C271.066162,3.104048 278.074585,3.389944 285.013062,4.094886 
	C318.131409,7.459675 345.114075,22.445278 366.141418,48.043606 
	C384.600891,70.515808 393.045288,96.738548 393.170776,125.586502 
	C393.383850,174.559601 393.312286,223.534576 393.140076,272.507996 
	C393.114502,279.783661 392.351410,287.133331 391.141205,294.315918 
	C382.786774,343.900452 347.071350,381.176788 297.653961,392.308136 
	C295.350708,392.826935 293.214172,394.085785 291.000000,395.000000 
	C230.645767,395.000000 170.291550,395.000000 109.242874,394.675232 
	C106.269302,393.958832 103.992714,393.551697 101.710648,393.177948 
	C53.600800,385.298553 14.699713,348.539673 4.211832,301.109589 
	C3.310970,297.035522 2.078459,293.034790 1.000003,289.000000 
M229.500183,35.269695 
	C194.834763,35.269585 160.166382,35.527824 125.505463,35.132347 
	C112.999588,34.989658 101.014679,36.501381 89.385201,40.966568 
	C54.649960,54.303307 33.168919,87.656441 33.076782,121.481644 
	C32.939240,171.976318 33.331043,222.472717 33.107319,272.966644 
	C33.054798,284.820129 34.766651,296.127289 38.999954,307.088074 
	C52.022369,340.805389 84.190239,362.931702 119.208359,363.164459 
	C169.700089,363.500061 220.197433,363.250031 270.690216,362.917328 
	C279.250153,362.860901 288.065216,362.155823 296.307587,360.006287 
	C334.633636,350.011047 360.835205,315.550659 361.125854,277.263611 
	C361.509155,226.771713 361.233398,176.272980 360.908386,125.779312 
	C360.853302,117.218498 360.137939,108.406204 357.999329,100.158226 
	C348.059143,61.821835 313.561066,35.925304 275.986023,35.104694 
	C260.832489,34.773750 245.662628,35.192261 229.500183,35.269695 
z"/>
<path fill="#FDFDFD" opacity="1.000000" stroke="none" 
	d="
M291.468658,395.000000 
	C293.214172,394.085785 295.350708,392.826935 297.653961,392.308136 
	C347.071350,381.176788 382.786774,343.900452 391.141205,294.315918 
	C392.351410,287.133331 393.114502,279.783661 393.140076,272.507996 
	C393.312286,223.534576 393.383850,174.559601 393.170776,125.586502 
	C393.045288,96.738548 384.600891,70.515808 366.141418,48.043606 
	C345.114075,22.445278 318.131409,7.459675 285.013062,4.094886 
	C278.074585,3.389944 271.066162,3.104048 264.089111,3.091575 
	C216.947632,3.007305 169.804932,2.866715 122.664604,3.117771 
	C94.678169,3.266818 69.255142,11.601777 47.235889,29.203825 
	C21.757797,49.570847 6.850078,76.050713 2.155731,108.308868 
	C2.085507,108.791428 1.888924,109.255592 1.375656,109.864166 
	C1.000000,73.682549 1.000000,37.365097 1.000000,1.023824 
	C132.260040,1.023824 263.520081,1.023824 394.890076,1.023824 
	C394.890076,132.333282 394.890076,263.666626 394.891205,395.000000 
	C360.574005,395.000000 326.255646,395.000000 291.468658,395.000000 
z"/>
<path fill="#FDFDFD" opacity="1.000000" stroke="none" 
	d="
M1.000003,289.468658 
	C2.078459,293.034790 3.310970,297.035522 4.211832,301.109589 
	C14.699713,348.539673 53.600800,385.298553 101.710648,393.177948 
	C103.992714,393.551697 106.269302,393.958832 108.774216,394.675232 
	C73.073738,395.000000 37.147472,395.000000 1.000000,395.000000 
	C1.000000,359.979431 1.000000,324.958374 1.000003,289.468658 
z"/>
<path fill="#FEFEFE" opacity="1.000000" stroke="none" 
	d="
M230.000183,35.269699 
	C245.662628,35.192261 260.832489,34.773750 275.986023,35.104694 
	C313.561066,35.925304 348.059143,61.821835 357.999329,100.158226 
	C360.137939,108.406204 360.853302,117.218498 360.908386,125.779312 
	C361.233398,176.272980 361.509155,226.771713 361.125854,277.263611 
	C360.835205,315.550659 334.633636,350.011047 296.307587,360.006287 
	C288.065216,362.155823 279.250153,362.860901 270.690216,362.917328 
	C220.197433,363.250031 169.700089,363.500061 119.208359,363.164459 
	C84.190239,362.931702 52.022369,340.805389 38.999954,307.088074 
	C34.766651,296.127289 33.054798,284.820129 33.107319,272.966644 
	C33.331043,222.472717 32.939240,171.976318 33.076782,121.481644 
	C33.168919,87.656441 54.649960,54.303307 89.385201,40.966568 
	C101.014679,36.501381 112.999588,34.989658 125.505463,35.132347 
	C160.166382,35.527824 194.834763,35.269585 230.000183,35.269699 
M100.010513,228.533569 
	C114.572632,278.214203 164.626450,309.729034 215.634903,300.891571 
	C273.115692,290.932739 309.338074,235.608780 299.299042,181.676804 
	C288.603058,124.215477 232.143051,86.621132 175.402435,99.816139 
	C120.871796,112.497215 83.375053,168.789078 100.010513,228.533569 
M323.695160,99.674675 
	C327.363983,81.641174 312.886505,70.563385 300.581299,71.148537 
	C289.611053,71.670219 279.710144,81.570999 279.113647,91.983307 
	C278.376434,104.851959 286.173523,114.355553 299.429535,116.745567 
	C309.037811,118.477905 319.958252,111.029518 323.695160,99.674675 
z"/>
<path fill="#757575" opacity="1.000000" stroke="none" 
	d="
M99.872368,228.153503 
	C83.375053,168.789078 120.871796,112.497215 175.402435,99.816139 
	C232.143051,86.621132 288.603058,124.215477 299.299042,181.676804 
	C309.338074,235.608780 273.115692,290.932739 215.634903,300.891571 
	C164.626450,309.729034 114.572632,278.214203 99.872368,228.153503 
M183.737930,269.126434 
	C192.827057,269.190033 202.078964,270.392151 210.977127,269.120056 
	C249.306763,263.640381 275.840942,223.561279 267.732422,185.532333 
	C260.238312,150.384903 226.240509,123.606628 186.639771,129.955643 
	C148.006851,136.149475 120.431839,175.005020 128.746094,213.203827 
	C135.209946,242.901169 153.731125,261.167053 183.737930,269.126434 
z"/>
<path fill="#757575" opacity="1.000000" stroke="none" 
	d="
M323.517273,100.056152 
	C319.958252,111.029518 309.037811,118.477905 299.429535,116.745567 
	C286.173523,114.355553 278.376434,104.851959 279.113647,91.983307 
	C279.710144,81.570999 289.611053,71.670219 300.581299,71.148537 
	C312.886505,70.563385 327.363983,81.641174 323.517273,100.056152 
z"/>
<path fill="#FEFEFE" opacity="1.000000" stroke="none" 
	d="
M183.322357,269.031647 
	C153.731125,261.167053 135.209946,242.901169 128.746094,213.203827 
	C120.431839,175.005020 148.006851,136.149475 186.639771,129.955643 
	C226.240509,123.606628 260.238312,150.384903 267.732422,185.532333 
	C275.840942,223.561279 249.306763,263.640381 210.977127,269.120056 
	C202.078964,270.392151 192.827057,269.190033 183.322357,269.031647 
z"/>
</svg>