<svg version="1.1" id="Layer_1" xmlns="http://www.w3.org/2000/svg" xmlns:xlink="http://www.w3.org/1999/xlink" x="0px" y="0px"
	 width="100%" viewBox="0 0 475 475" enable-background="new 0 0 475 475" xml:space="preserve">
<path fill="#FFFFFF" opacity="1.000000" stroke="none" 
	d="
M267.000000,476.000000 
	C179.333328,476.000000 92.166626,475.974243 5.000134,476.095856 
	C1.575877,476.100647 0.902832,475.423676 0.905235,471.999939 
	C1.014510,316.333344 1.014510,160.666656 0.905235,5.000067 
	C0.902832,1.576329 1.576329,0.902833 5.000066,0.905236 
	C160.666656,1.014502 316.333344,1.014502 471.999939,0.905236 
	C475.423676,0.902833 476.097168,1.576329 476.094757,5.000066 
	C475.985504,160.666656 475.985504,316.333344 476.094757,471.999939 
	C476.097168,475.423676 475.424469,476.102997 471.999817,476.096527 
	C403.833405,475.967163 335.666656,476.000000 267.000000,476.000000 
z"/>
<path fill="#707070" opacity="1.000000" stroke="none" 
	d="
M421.999298,441.165222 
	C392.834839,441.249420 364.168945,441.213135 335.506531,441.509247 
	C329.007355,441.576355 325.011292,439.196014 321.152283,433.844482 
	C306.462006,413.472321 291.121613,393.569611 276.072418,373.455353 
	C256.738770,347.614563 237.399536,321.777588 218.167801,295.860992 
	C209.462753,284.130127 209.618439,284.082703 199.769104,294.697052 
	C177.677811,318.504181 155.483429,342.215881 133.440674,366.067749 
	C111.753204,389.535156 90.196548,413.123444 68.596931,436.671936 
	C66.505150,438.952454 64.025558,441.057098 61.013885,441.132355 
	C50.460083,441.396027 39.895664,441.234589 28.593262,441.234589 
	C36.252499,431.696716 44.580700,423.622986 52.397480,415.099701 
	C66.343781,399.892914 80.376251,384.765045 94.396225,369.625977 
	C104.353745,358.873535 114.340729,348.148346 124.330795,337.426117 
	C143.502884,316.848877 162.692352,296.287872 181.859146,275.705719 
	C184.918228,272.420776 187.723953,268.878510 190.972382,265.798615 
	C193.238205,263.650391 192.852844,262.121338 191.189606,259.924988 
	C177.029175,241.225891 162.919357,222.488220 148.858459,203.714111 
	C137.586487,188.663788 126.456390,173.507111 115.170547,158.467270 
	C92.209984,127.869316 69.172928,97.328766 46.200222,66.739906 
	C41.207981,60.092575 36.367313,53.331581 31.429462,46.643147 
	C29.428162,43.932339 30.131884,43.106998 33.400711,43.110977 
	C72.400307,43.158470 111.400017,43.127163 150.399673,43.094154 
	C153.667725,43.091389 155.950806,44.451229 157.923416,47.110958 
	C173.286819,67.825905 188.759872,88.459549 204.204605,109.114159 
	C222.735901,133.896484 241.307297,158.648956 259.764984,183.485962 
	C262.175537,186.729630 263.138153,188.577744 266.865509,183.991196 
	C274.714447,174.333054 283.652924,165.561295 292.129669,156.412231 
	C310.791443,136.270279 329.431458,116.108192 348.104980,95.977165 
	C360.336609,82.790840 372.611023,69.644249 384.868561,56.481983 
	C385.095154,56.238667 385.422333,56.063526 385.581909,55.786953 
	C392.100891,44.488743 402.133698,41.578625 414.447144,43.049213 
	C420.195343,43.735714 426.093475,43.166599 432.798889,43.166599 
	C429.538757,46.905952 426.766785,50.277454 423.795227,53.462791 
	C403.347839,75.381409 382.790283,97.197617 362.403717,119.172501 
	C344.630676,138.330261 327.061981,157.677475 309.350220,176.892349 
	C300.319366,186.689606 291.257599,196.461838 282.019531,206.062302 
	C279.650330,208.524429 279.698608,210.161545 281.699951,212.806824 
	C298.966370,235.628937 316.120544,258.536194 333.260864,281.453461 
	C356.782562,312.902985 380.249481,344.393463 403.765625,375.847107 
	C419.397369,396.755127 435.076141,417.628021 450.721252,438.526093 
	C451.195526,439.159607 451.528625,439.898865 452.260773,441.165131 
	C441.989532,441.165131 432.244324,441.165131 421.999298,441.165222 
z"/>
<path fill="#FEFEFE" opacity="1.000000" stroke="none" 
	d="
M270.874634,242.154602 
	C283.567963,259.060364 296.064728,275.665863 308.475464,292.335358 
	C322.474030,311.137604 336.343597,330.036072 350.367188,348.819550 
	C360.806885,362.802704 371.430878,376.648102 381.917511,390.596436 
	C387.694153,398.279999 393.356598,406.049408 398.953003,413.621124 
	C397.780670,415.683014 396.286865,414.956024 395.108856,414.959259 
	C378.616974,415.004822 362.123322,414.856537 345.633911,415.061218 
	C341.607819,415.111206 339.094849,413.460968 336.862885,410.489136 
	C315.687225,382.294403 294.442596,354.151459 273.283020,325.944702 
	C252.024246,297.605713 230.827545,269.220093 209.626099,240.838150 
	C186.235825,209.526138 162.888641,178.181885 139.489502,146.876511 
	C121.568459,122.900185 103.583588,98.971581 85.677376,74.984238 
	C84.634361,73.587006 82.437965,72.075363 83.401070,70.375687 
	C84.226578,68.918854 86.714691,69.217491 88.541962,69.210701 
	C104.367386,69.151894 120.192871,69.109955 136.018387,69.081154 
	C139.358475,69.075073 142.068466,70.201546 144.177368,73.025406 
	C165.263947,101.260841 186.415863,129.447495 207.545471,157.650803 
	C228.579330,185.726318 249.608749,213.805176 270.874634,242.154602 
z"/>
</svg>